# xmcd CD database file
#
# Track frame offsets:
#	150
#	14533
#	23845
#	37506
#	50180
#	65911
#	78270
#	91198
#	103315
#	117767
#	133109
#	149162
#	162075
#	176208
#	190491
#	201965
#	216004
#	226729
#	236551
#	249897
#	261446
#	271723
#
# Disc length: 3783 seconds
#
# Revision: 1
# Processed by: cddbd v1.4PL0 Copyright (c) Steve Scherf et al.
# Submitted via: CDex 1.40Beta9
#
DISCID=3d0ec516
DTITLE=Julio Sosa - Todo Sosa - De Fm Tango Para Usted (Disco 2)
DYEAR=1991
DGENRE=Tango
TTITLE0=Armando Pontier - Julio Sosa - Cambalache
TTITLE1=Armando Pontier - Julio Sosa - Estas Cosas De La Vida
TTITLE2=Armando Pontier - Julio Sosa - Barrio Pobre
TTITLE3=Armando Pontier - Julio Sosa - Guapo Y Varón
TTITLE4=Armando Pontier - Julio Sosa - Confesión
TTITLE5=Leopoldo Federico - Julio Sosa - Entre Sueños
TTITLE6=Leopoldo Federico - Julio Sosa - Hoy Es Tarde
TTITLE7=Armando Pontier - Julio Sosa - Araca París
TTITLE8=Armando Pontier - Julio Sosa - Verdemar
TTITLE9=Armando Pontier - Julio Sosa - Enfundá La Mandolina
TTITLE10=Leopoldo Federico - Julio Sosa - Qué Solo Estoy
TTITLE11=Leopoldo Federico - Julio Sosa - Siga El Corso
TTITLE12=Leopoldo Federico - Julio Sosa - Che Papusa Oí
TTITLE13=Armando Pontier - Julio Sosa - Azabache
TTITLE14=Armando Pontier - Julio Sosa - Al Compás Del Corazón
TTITLE15=Armando Pontier - Julio Sosa - Margo
TTITLE16=Armando Pontier - Julio Sosa - Nunca Es Tarde
TTITLE17=Armando Pontier - Julio Sosa - Toda Mi Vida
TTITLE18=Armando Pontier - Julio Sosa - La Casita De Mis Viejos
TTITLE19=Armando Pontier - Julio Sosa - Tengo Miedo
TTITLE20=Leopoldo Federico - Julio Sosa - Romántica
TTITLE21=Armando Pontier - Julio Sosa - La Gayola
EXTD=YEAR: 1991 ID3G: 113
EXTT0=
EXTT1=
EXTT2=
EXTT3=
EXTT4=
EXTT5=
EXTT6=
EXTT7=
EXTT8=
EXTT9=
EXTT10=
EXTT11=
EXTT12=
EXTT13=
EXTT14=
EXTT15=
EXTT16=
EXTT17=
EXTT18=
EXTT19=
EXTT20=
EXTT21=
PLAYORDER=
